<svg width="667" height="148" viewBox="0 0 667 148" fill="none" xmlns="http://www.w3.org/2000/svg">
<path d="M58.4755 0H89.5245V148H58.4755V0Z" fill="#FDB87C"/>
<path d="M115.348 10.6966L137.303 32.6516L32.6516 137.303L10.6966 115.348L115.348 10.6966Z" fill="#FDB87C"/>
<path d="M148 58.4755V89.5245L0 89.5245L1.35719e-06 58.4755L148 58.4755Z" fill="#FDB87C"/>
<path d="M137.303 115.348L115.348 137.303L10.6966 32.6516L32.6516 10.6966L137.303 115.348Z" fill="#FDB87C"/>
<path d="M202.24 123H186.368V29.432H202.24L232.448 103.928L262.656 29.432H278.784V123H262.912V94.2C262.912 75.384 262.912 69.88 263.808 63.224L240 123H224.896L201.216 63.352C202.112 68.984 202.24 77.816 202.24 89.464V123ZM319.717 124.664C300.901 124.664 287.717 110.968 287.717 91.384C287.717 71.544 300.645 57.848 319.205 57.848C338.149 57.848 350.181 70.52 350.181 90.232V94.968L302.565 95.096C303.717 106.232 309.605 111.864 319.973 111.864C328.549 111.864 334.181 108.536 335.973 102.52H350.437C347.749 116.344 336.229 124.664 319.717 124.664ZM319.333 70.648C310.117 70.648 304.485 75.64 302.949 85.112H334.693C334.693 76.408 328.677 70.648 319.333 70.648ZM382.903 124.664C364.599 124.664 353.207 111.224 353.207 91.64C353.207 71.928 364.727 57.848 383.799 57.848C392.631 57.848 400.439 61.56 404.407 67.832V27.768H419.895V123H405.559L404.535 113.144C400.695 120.44 392.503 124.664 382.903 124.664ZM386.359 110.328C397.239 110.328 404.279 102.52 404.279 91.128C404.279 79.736 397.239 71.8 386.359 71.8C375.479 71.8 368.823 79.864 368.823 91.128C368.823 102.392 375.479 110.328 386.359 110.328ZM438.217 47.096C432.841 47.096 428.617 42.872 428.617 37.624C428.617 32.376 432.841 28.28 438.217 28.28C443.337 28.28 447.561 32.376 447.561 37.624C447.561 42.872 443.337 47.096 438.217 47.096ZM430.409 123V59.768H446.025V123H430.409Z" fill="#131313"/>
<path d="M471.631 30.456V111.352H512.335V123H459.087V30.456H471.631ZM524.042 45.56C519.69 45.56 516.106 41.976 516.106 37.624C516.106 33.144 519.69 29.688 524.042 29.688C528.394 29.688 531.978 33.144 531.978 37.624C531.978 41.976 528.394 45.56 524.042 45.56ZM518.154 123V60.408H530.186V123H518.154ZM553.926 123H541.894V60.408H552.774L554.054 70.008C558.022 62.84 565.958 58.616 574.79 58.616C591.302 58.616 598.854 68.728 598.854 84.728V123H586.822V87.416C586.822 74.744 580.934 69.624 571.718 69.624C560.454 69.624 553.926 77.688 553.926 89.848V123ZM622.047 123H610.015V28.792H622.047V89.848L649.823 60.408H664.927L640.991 85.368L664.799 123H650.975L632.671 94.072L622.047 105.208V123Z" fill="#FDB87C"/>
</svg>
